<svg version="1.1" id="Layer_1" xmlns="http://www.w3.org/2000/svg" xmlns:xlink="http://www.w3.org/1999/xlink" x="0px" y="0px"
	 width="100%" viewBox="0 0 512 512" enable-background="new 0 0 512 512" xml:space="preserve">
<path fill="#4BB7FF" opacity="1.000000" stroke="none" 
	d="
M186.288696,512.759094 
	C175.312439,513.000000 164.624878,513.000000 153.468658,513.000000 
	C152.365768,512.420593 151.621521,512.094788 150.768250,511.986328 
	C134.362610,509.901398 123.022087,499.898315 113.430000,487.553253 
	C107.670631,480.140900 103.901146,471.634125 101.519630,462.455902 
	C90.987946,421.867371 80.620415,381.235352 69.794426,340.724213 
	C65.643509,325.191376 59.502750,310.417542 50.506947,297.030090 
	C36.258240,275.825378 25.060642,253.215576 19.594477,228.188950 
	C12.098614,193.869415 11.937816,159.828720 25.864935,126.754372 
	C29.038015,119.218895 32.870026,112.024017 37.213089,105.094978 
	C39.942455,100.740463 39.700699,100.073822 35.466663,97.077950 
	C31.683039,94.400772 27.276562,93.460068 22.954138,92.257973 
	C10.307252,88.740753 3.510461,79.364136 3.889214,65.916008 
	C4.218909,54.209774 11.876611,45.635475 24.283297,42.762222 
	C36.667320,39.894218 45.070065,32.721870 48.110489,19.997166 
	C48.342129,19.027725 48.654392,18.074816 48.932255,17.115892 
	C51.138573,9.501652 55.160275,3.548444 63.693298,1.248560 
	C70.021156,1.000000 76.042305,1.000000 82.531731,1.000000 
	C93.087585,4.051812 96.675430,12.043490 99.069038,21.341900 
	C101.685562,31.506243 107.921722,38.615646 118.250198,41.897781 
	C122.184830,43.148109 125.833046,42.212784 129.556946,41.515968 
	C163.678391,35.131226 196.481613,38.634495 227.505753,54.789299 
	C238.759979,60.649567 249.100037,67.919571 258.320831,76.703758 
	C262.218933,80.417267 262.708374,80.427818 266.463593,76.872238 
	C288.591522,55.920666 314.931580,43.673836 345.016846,39.835888 
	C375.652924,35.927673 405.166565,40.098618 432.607666,54.880909 
	C459.067902,69.134811 479.569275,89.412643 493.706268,116.172493 
	C506.933990,141.211212 511.741943,167.883377 509.990540,195.810974 
	C507.810730,230.569870 497.080078,262.605560 477.660126,291.598999 
	C469.642273,303.569397 463.407562,316.410553 458.316437,329.832703 
	C455.083405,338.356232 457.573578,345.407288 465.496613,351.547974 
	C469.982697,355.024902 475.248657,356.449371 480.560760,357.903168 
	C488.225616,360.000885 493.845184,364.564697 497.070801,371.938354 
	C502.544128,384.450226 497.951263,402.261505 479.968353,406.855652 
	C475.764618,407.929596 471.534637,408.997101 467.819336,411.303528 
	C461.145081,415.446869 456.802460,421.426788 455.133820,429.090546 
	C453.667145,435.826477 450.911041,441.676758 445.442688,446.061035 
	C441.717224,449.047943 437.659882,451.036743 432.727417,451.157227 
	C426.380768,451.312164 425.850647,451.684052 424.352570,458.017029 
	C421.995483,467.981293 418.876617,477.616089 412.601379,485.864685 
	C402.360168,499.326477 390.116364,509.896149 372.305664,512.754761 
	C361.312439,513.000000 350.624878,513.000000 339.468658,513.000000 
	C334.593048,511.051880 329.606598,511.344360 325.207458,509.107635 
	C312.898682,502.849274 302.806885,494.298126 295.646057,482.350708 
	C288.786011,470.905060 285.901184,457.982971 281.764648,445.546265 
	C276.461609,429.602325 271.667664,413.488190 266.271576,397.571747 
	C265.114136,394.157654 264.820374,390.426117 262.372894,386.542175 
	C259.704010,392.531586 258.106415,398.218658 256.345337,403.820068 
	C249.408813,425.882812 242.634857,448.003906 235.094193,469.863953 
	C229.013306,487.492096 217.114502,500.313965 200.460999,508.764038 
	C196.055527,510.999420 191.245422,511.422913 186.288696,512.759094 
z"/>
<path fill="#000000" opacity="1.000000" stroke="none" 
	d="
M372.468658,513.000000 
	C371.797394,512.778748 371.376831,512.462891 371.425537,512.350830 
	C371.971771,511.093567 373.224091,511.223480 374.293732,510.845398 
	C384.652252,507.184296 394.194489,502.404327 402.252075,494.470459 
	C412.627136,484.254761 418.913757,472.174744 422.012817,458.168884 
	C422.571808,455.642609 423.411560,453.179077 423.990326,450.656403 
	C424.739563,447.390717 427.362274,448.998169 428.833893,449.120880 
	C438.571716,449.932770 445.016083,445.110901 450.008514,437.471802 
	C451.182465,435.675446 451.607056,433.662476 452.027679,431.597931 
	C455.026489,416.879669 463.735077,408.007568 478.618408,404.907806 
	C490.772858,402.376404 497.513184,392.972961 496.985657,381.406128 
	C496.512146,371.024475 490.830322,361.832001 476.452087,359.058289 
	C466.465332,357.131683 460.068939,350.801849 455.280640,342.523529 
	C452.324554,337.412903 454.984039,332.512604 456.749451,327.615021 
	C462.904053,310.541107 472.870331,295.573425 482.099884,280.120209 
	C492.689331,262.390198 500.192352,243.248703 504.043732,222.790939 
	C506.508942,209.696213 508.129639,196.563034 508.029266,183.209488 
	C507.862579,161.024277 502.935638,140.101288 493.105042,120.128868 
	C478.449799,90.354485 455.843750,68.723198 426.374817,54.267601 
	C412.990723,47.702221 398.681305,43.625710 383.658813,41.890625 
	C348.418488,37.820389 315.803284,44.714413 286.003998,64.069832 
	C278.152069,69.169861 270.731415,74.931725 264.535614,82.047562 
	C262.919922,83.903198 262.052979,83.681099 260.428650,82.019943 
	C241.976807,63.149750 219.674316,51.014057 194.173218,44.646313 
	C176.899780,40.333050 159.409958,40.062099 141.764404,41.867760 
	C135.889053,42.468983 130.262177,44.140663 124.479034,44.879635 
	C117.073204,45.825943 105.784370,40.696411 99.992401,29.788490 
	C98.635483,27.233025 97.306068,24.752611 96.823044,21.704958 
	C95.390068,12.663641 90.334763,5.969262 82.667694,1.255407 
	C224.776077,1.000000 366.552185,1.024971 508.328094,0.878407 
	C512.544189,0.874048 513.103333,1.930748 513.100586,5.824460 
	C512.983765,173.256744 512.974365,340.689178 513.136169,508.121399 
	C513.140564,512.674622 511.796265,513.101807 507.882233,513.089600 
	C462.900940,512.948975 417.919037,513.000000 372.468658,513.000000 
z"/>
<path fill="#000000" opacity="1.000000" stroke="none" 
	d="
M63.531342,1.000000 
	C65.272827,1.874138 64.009407,2.613448 63.627911,2.767956 
	C55.193878,6.183751 51.590626,13.199189 50.067360,21.465143 
	C47.865395,33.414017 36.027946,43.171288 24.559830,45.029812 
	C13.307523,46.853363 7.230626,54.659039 6.124309,64.812218 
	C4.620589,78.612541 12.972301,87.526718 23.026014,89.955765 
	C29.730768,91.575661 36.095295,93.612434 41.208000,98.599510 
	C42.705112,100.059845 42.706783,101.305038 41.716881,102.693817 
	C30.526964,118.392532 23.617439,135.897659 19.713486,154.670319 
	C16.501575,170.115173 16.593307,185.620865 17.794716,201.327255 
	C19.060320,217.872910 22.664560,233.776276 28.141441,249.287582 
	C33.940079,265.710083 42.399803,280.845215 52.067562,295.285400 
	C61.919918,310.001312 68.381828,326.198547 72.913223,343.167786 
	C80.257736,370.671661 87.212852,398.279327 94.414963,425.821533 
	C98.135986,440.051361 100.942162,454.565033 105.915337,468.413666 
	C113.455406,489.410217 127.657211,503.843231 149.453079,510.278229 
	C150.833694,510.685791 152.895981,510.508728 153.336060,512.706787 
	C103.529800,513.000000 54.059559,512.977417 4.589500,513.060852 
	C1.863432,513.065430 0.897820,512.833130 0.900002,509.593536 
	C1.013416,341.195038 1.013742,172.796463 0.898360,4.397996 
	C0.896124,1.134206 1.893583,0.923059 4.598217,0.938891 
	C24.085823,1.052961 43.574409,1.000000 63.531342,1.000000 
z"/>
<path fill="#000000" opacity="1.000000" stroke="none" 
	d="
M186.468658,513.000000 
	C184.699875,511.660065 186.239319,511.275726 186.861526,511.115021 
	C213.484436,504.238281 228.268173,486.039978 236.057480,460.646637 
	C243.734222,435.620453 251.990906,410.772278 259.953857,385.833435 
	C260.439850,384.311432 260.425476,382.260590 262.372589,382.118744 
	C264.472687,381.965698 264.534515,384.097870 264.999207,385.572418 
	C273.352936,412.080231 281.294830,438.726654 290.166504,465.059814 
	C298.074432,488.532318 313.379089,504.975952 338.239624,511.115997 
	C338.790497,511.252075 339.199707,511.961639 339.337494,512.701843 
	C288.312439,513.000000 237.624878,513.000000 186.468658,513.000000 
z"/>
<path fill="#FFFFFF" opacity="1.000000" stroke="none" 
	d="
M138.555420,76.224060 
	C139.839844,72.671738 140.331223,69.374496 139.951874,66.024445 
	C139.663284,63.476067 140.656952,62.393078 143.146011,62.107361 
	C183.019653,57.530338 217.470749,68.963448 246.449219,96.841019 
	C248.828522,99.129929 248.328293,100.442947 246.143753,102.315941 
	C234.803741,112.038696 221.869064,117.950851 206.883240,119.113953 
	C204.559860,119.294281 202.207321,119.317154 199.921265,119.716286 
	C194.632141,120.639771 191.205521,124.817596 191.416336,129.817062 
	C191.638885,135.094879 195.565079,139.098282 201.161667,139.233337 
	C216.343964,139.599655 230.476532,135.667740 243.718338,128.358765 
	C254.069275,122.645447 262.700989,114.911865 270.256683,105.878342 
	C290.196472,82.038460 315.522919,67.717690 346.176453,62.449409 
	C411.543915,51.215031 477.418915,99.329033 486.041656,165.143478 
	C491.247681,204.879364 481.938080,241.550766 460.861694,275.335083 
	C453.093323,287.787354 445.373016,300.222260 439.981964,313.929291 
	C439.071869,316.243164 438.012390,316.607605 435.537170,316.118073 
	C421.300507,313.302399 411.030243,319.974854 407.690216,334.123016 
	C404.361786,348.222198 395.690521,356.702332 381.578827,359.823212 
	C369.909576,362.403931 363.006989,370.684082 362.978241,381.880127 
	C362.949402,393.110840 369.798096,401.515442 381.397247,404.093964 
	C390.621796,406.144562 398.078827,410.640747 403.051666,418.817444 
	C406.735291,424.874359 408.446381,431.141235 406.052399,438.307404 
	C404.000183,444.450592 402.725647,450.850708 401.027924,457.115723 
	C395.338776,478.109467 377.736084,492.410034 356.964691,492.958771 
	C335.458405,493.526917 317.187225,480.753235 310.353912,459.860138 
	C301.455139,432.651825 292.950317,405.314850 284.116577,378.084991 
	C280.100494,365.705505 270.168793,359.671204 257.924286,361.967285 
	C248.597961,363.716064 243.242798,369.833710 240.456055,378.595215 
	C233.645645,400.007050 226.802963,421.408600 219.963516,442.811188 
	C218.038467,448.835205 216.197006,454.889435 214.114883,460.859222 
	C207.073486,481.048065 188.974731,493.548431 167.799561,492.962860 
	C147.435776,492.399750 129.478500,478.340637 124.080650,458.004944 
	C113.278130,417.307892 102.805298,376.523346 92.163986,335.783386 
	C87.155319,316.607880 79.261192,298.655579 68.247665,282.205811 
	C52.316040,258.410431 41.946121,232.607574 38.476551,204.092026 
	C35.217991,177.310699 38.370083,151.626999 50.870941,127.388580 
	C52.539585,124.153168 53.396362,123.534966 56.044834,126.707375 
	C62.057251,133.909180 70.069458,136.134277 79.027603,133.818100 
	C87.661797,131.585678 93.171349,125.797508 95.028236,117.040794 
	C98.207832,102.046341 107.088943,93.044998 122.155930,90.001244 
	C129.868134,88.443260 135.336319,83.909363 138.555420,76.224060 
z"/>
<path fill="#CBF4FD" opacity="1.000000" stroke="none" 
	d="
M434.431152,345.433899 
	C441.246124,363.436066 453.595642,374.694458 472.000214,379.208862 
	C473.667358,379.617798 475.985748,379.596741 476.078369,382.092712 
	C476.184326,384.949036 473.712219,384.810028 471.848724,385.296265 
	C451.188202,390.687531 437.995972,403.554047 432.663605,424.346924 
	C432.199005,426.158569 432.264557,428.769073 429.512177,428.755157 
	C427.058746,428.742767 427.098969,426.424652 426.662201,424.696655 
	C421.322479,403.571930 408.219025,390.200287 386.978760,384.950958 
	C385.213715,384.514709 383.088806,384.327942 383.177155,381.838898 
	C383.253418,379.690765 385.156128,379.447052 386.777557,379.062775 
	C408.267700,373.969177 421.602386,360.636597 426.949127,339.260254 
	C427.407074,337.429260 427.732422,335.394989 430.143890,335.545837 
	C432.234924,335.676666 432.418243,337.680511 432.840088,339.263855 
	C433.353424,341.190796 433.808258,343.133301 434.431152,345.433899 
z"/>
<path fill="#CBF4FD" opacity="1.000000" stroke="none" 
	d="
M84.639275,44.314957 
	C92.536697,55.096943 102.684105,61.888710 115.347481,64.900719 
	C117.232079,65.348969 119.759621,65.253784 119.787903,67.950699 
	C119.816467,70.674858 117.289871,70.553932 115.404526,71.030670 
	C94.847969,76.228638 81.816864,89.083122 76.268387,109.538773 
	C75.727165,111.534134 75.999275,114.442574 73.035812,114.367844 
	C70.136124,114.294724 70.467934,111.395096 69.936783,109.402504 
	C64.535133,89.138245 51.770935,76.243225 31.453979,70.851021 
	C29.654322,70.373375 27.061790,70.589844 26.923899,67.841476 
	C26.780323,64.979843 29.333986,65.145607 31.175816,64.661461 
	C51.825882,59.233349 65.039795,46.383831 70.343521,25.564793 
	C70.804626,23.754818 70.778618,21.115137 73.554222,21.240469 
	C76.295204,21.364237 76.039452,24.022823 76.459679,25.836134 
	C77.982712,32.408070 80.674065,38.440922 84.639275,44.314957 
z"/>
<path fill="#9AEBFB" opacity="1.000000" stroke="none" 
	d="
M367.937561,132.942413 
	C369.834137,125.557861 373.387512,122.213890 378.953369,122.239723 
	C384.089172,122.263565 388.045868,125.941292 389.594330,132.358810 
	C393.188599,147.254974 402.547852,156.278046 417.331940,159.888336 
	C423.487244,161.391464 426.875366,165.096725 426.981964,170.294128 
	C427.099579,176.031555 424.128967,179.444611 417.397034,181.157211 
	C402.504974,184.945694 393.005035,194.042206 389.446289,209.171417 
	C387.906799,215.716309 384.128082,218.932739 378.554047,218.860596 
	C373.428558,218.794250 369.452545,215.145126 368.098022,209.142502 
	C364.673279,193.965836 355.278931,184.722275 340.215149,181.262665 
	C335.178741,180.105972 331.622437,177.694946 330.953644,172.272446 
	C330.119202,165.506485 332.951935,161.720352 340.320831,159.926758 
	C354.717438,156.422638 363.932037,147.626358 367.937561,132.942413 
z"/>
<path fill="#9AEBFB" opacity="1.000000" stroke="none" 
	d="
M290.553162,242.411591 
	C300.916199,240.083435 307.536621,234.416779 309.872131,224.149918 
	C310.613190,220.892212 312.728577,218.946472 316.266541,218.991043 
	C319.766418,219.035126 321.855133,220.917664 322.615112,224.221939 
	C324.815735,233.789597 330.803497,239.553436 340.221069,241.872269 
	C343.563660,242.695282 345.550995,244.774551 345.627838,248.132706 
	C345.711945,251.807358 343.375793,253.957260 339.983093,254.769775 
	C330.646057,257.005890 324.946381,262.730438 322.731903,272.070404 
	C321.921661,275.487732 319.666626,277.720734 316.049316,277.715118 
	C312.596497,277.709808 310.690765,275.478485 309.863068,272.234894 
	C307.475494,262.878143 301.919861,256.930725 292.221527,254.665985 
	C285.971191,253.206436 285.181152,247.295227 290.553162,242.411591 
z"/>
</svg>